HIERARCHY
ROOT Hips
{
	OFFSET 0.000000 0.000000 0.000000
	CHANNELS 6 Xposition Yposition Zposition Yrotation Xrotation Zrotation
	JOINT Chest
	{
		OFFSET 0.000000 -0.009281 11.569106
		CHANNELS 3 Yrotation Xrotation Zrotation
		JOINT Chest2
		{
			OFFSET -0.000000 0.016865 9.269641
			CHANNELS 3 Yrotation Xrotation Zrotation
			JOINT Chest3
			{
				OFFSET -0.000000 0.000001 8.374491
				CHANNELS 3 Yrotation Xrotation Zrotation
				JOINT Chest4
				{
					OFFSET -0.000000 0.000001 8.374493
					CHANNELS 3 Yrotation Xrotation Zrotation
					JOINT Neck
					{
						OFFSET -0.000000 0.000002 12.152554
						CHANNELS 3 Yrotation Xrotation Zrotation
						JOINT Head
						{
							OFFSET -0.000000 0.040101 7.802319
							CHANNELS 3 Yrotation Xrotation Zrotation
							End Site
							{
								OFFSET -0.000000 0.020947 14.853096
							}
						}
					}
					JOINT RightCollar
					{
						OFFSET 2.894404 0.000001 6.791374
						CHANNELS 3 Yrotation Xrotation Zrotation
						JOINT RightShoulder
						{
							OFFSET 13.574684 0.000001 0.000000
							CHANNELS 3 Yrotation Xrotation Zrotation
							JOINT RightElbow
							{
								OFFSET 23.923903 0.000002 0.000000
								CHANNELS 3 Yrotation Xrotation Zrotation
								JOINT RightWrist
								{
									OFFSET 19.846718 0.012767 0.000000
									CHANNELS 3 Yrotation Xrotation Zrotation
									End Site
									{
										OFFSET 14.973145 0.000001 0.000000
									}
								}
							}
						}
					}
					JOINT LeftCollar
					{
						OFFSET -2.894404 0.000001 6.791374
						CHANNELS 3 Yrotation Xrotation Zrotation
						JOINT LeftShoulder
						{
							OFFSET -13.574684 -0.000001 0.000000
							CHANNELS 3 Yrotation Xrotation Zrotation
							JOINT LeftElbow
							{
								OFFSET -23.923903 -0.000002 0.000000
								CHANNELS 3 Yrotation Xrotation Zrotation
								JOINT LeftWrist
								{
									OFFSET -19.846718 0.012763 0.000000
									CHANNELS 3 Yrotation Xrotation Zrotation
									End Site
									{
										OFFSET -14.973145 -0.000001 0.000000
									}
								}
							}
						}
					}
				}
			}
		}
	}
	JOINT RightHip
	{
		OFFSET 9.469263 0.004643 0.045487
		CHANNELS 3 Yrotation Xrotation Zrotation
		JOINT RightKnee
		{
			OFFSET 0.000000 0.002661 -40.478676
			CHANNELS 3 Yrotation Xrotation Zrotation
			JOINT RightAnkle
			{
				OFFSET 0.000000 0.049106 -35.224068
				CHANNELS 3 Yrotation Xrotation Zrotation
				JOINT RightToe
				{
					OFFSET -0.000001 12.539529 -6.151390
					CHANNELS 3 Yrotation Xrotation Zrotation
					End Site
					{
						OFFSET -0.000001 5.044994 -1.291870
					}
				}
			}
		}
	}
	JOINT LeftHip
	{
		OFFSET -9.469263 0.004641 0.045487
		CHANNELS 3 Yrotation Xrotation Zrotation
		JOINT LeftKnee
		{
			OFFSET 0.000000 0.002661 -40.478676
			CHANNELS 3 Yrotation Xrotation Zrotation
			JOINT LeftAnkle
			{
				OFFSET 0.000000 0.049106 -35.224068
				CHANNELS 3 Yrotation Xrotation Zrotation
				JOINT LeftToe
				{
					OFFSET -0.000001 12.539529 -6.151390
					CHANNELS 3 Yrotation Xrotation Zrotation
					End Site
					{
						OFFSET -0.000001 5.044994 -1.291870
					}
				}
			}
		}
	}
}
MOTION
Frames: 8
Frame Time: 0.016667
12.292308 6.674912 83.069824 -8.582688 -2.344485 -105.590866 2.268005 -2.756819 5.881893 1.042556 -1.193408 2.606717 1.042556 -1.193408 2.606717 0.786997 -0.890632 1.957009 -0.014456 -15.537994 3.787272 1.374508 7.239849 7.064849 6.525649 6.435261 -6.997111 77.440685 -5.988427 19.490906 73.293073 -11.515726 53.347360 -29.996224 52.529544 2.393956 -3.132952 -1.970081 -20.875819 -76.933434 28.272287 -80.652212 -44.601429 34.816018 -68.699668 53.113067 30.030067 13.380947 -0.913695 -13.063772 -4.839394 0.562579 -1.937323 -1.438275 0.328570 5.857256 -0.135639 -0.021475 -0.017892 -0.002687 0.137447 -12.324559 -3.784960 -0.368764 -0.854793 0.011002 -1.346551 3.941866 -1.440134 -0.011330 -0.042018 0.002832 
12.274640 6.669265 83.069855 -8.601240 -2.332683 -105.578585 2.260696 -2.781504 5.894539 1.039918 -1.204080 2.612915 1.039918 -1.204080 2.612916 0.785075 -0.898637 1.961670 -0.004461 -15.526280 3.737360 1.375452 7.263355 6.975900 6.534970 6.461093 -7.032091 77.433827 -5.994144 19.489750 73.280806 -11.515322 53.386292 -29.753841 52.640452 2.582090 -3.124231 -1.958148 -20.916532 -76.948952 28.238090 -80.645034 -44.674198 34.792605 -68.773878 53.154803 30.030201 13.387168 -0.924260 -13.066472 -4.896789 0.569501 -1.944589 -1.403899 0.327129 5.859463 -0.130675 -0.025653 -0.020125 -0.003725 0.128790 -12.321136 -3.791174 -0.361757 -0.866489 0.005794 -1.355653 3.931649 -1.446957 -0.011967 -0.037419 0.003021 
12.255863 6.662237 83.069809 -8.615925 -2.319584 -105.558456 2.256816 -2.806914 5.917302 1.038635 -1.215326 2.623710 1.038635 -1.215327 2.623712 0.784182 -0.907059 1.969782 0.008140 -15.512019 3.673035 1.376069 7.292083 6.861112 6.529970 6.493425 -7.104042 77.433417 -6.010642 19.492334 73.284535 -11.506583 53.427505 -29.579913 52.746372 2.739219 -3.126432 -1.945675 -20.991750 -76.960700 28.216763 -80.642773 -44.703404 34.760428 -68.818876 53.227381 30.029138 13.436862 -0.928520 -13.069861 -4.960954 0.571421 -1.941999 -1.374454 0.325786 5.857696 -0.124086 -0.028201 -0.022458 -0.003689 0.119560 -12.311803 -3.804374 -0.351245 -0.879020 -0.001898 -1.365356 3.922268 -1.449316 -0.013144 -0.034950 0.003516 
12.236119 6.652950 83.068703 -8.625237 -2.306227 -105.536217 2.251210 -2.829909 5.903881 1.035926 -1.225433 2.618434 1.035927 -1.225432 2.618435 0.782183 -0.914660 1.965836 0.013626 -15.495575 3.635023 1.373210 7.324034 6.792878 6.542725 6.510865 -7.098201 77.434094 -6.020784 19.497786 73.300210 -11.507900 53.458880 -29.498190 52.839044 2.853784 -3.130944 -1.924423 -20.982099 -76.940797 28.193759 -80.620363 -44.743080 34.727246 -68.876174 53.339201 30.011978 13.487624 -0.931090 -13.069970 -5.011275 0.578725 -1.935913 -1.353541 0.318891 5.855600 -0.127418 -0.030078 -0.025246 -0.002879 0.113287 -12.296564 -3.814359 -0.339746 -0.891914 -0.013954 -1.372900 3.915179 -1.444970 -0.017681 -0.034781 0.003584 
12.213827 6.642313 83.067078 -8.628661 -2.291552 -105.505358 2.248637 -2.852373 5.908599 1.034626 -1.235499 2.620964 1.034626 -1.235499 2.620964 0.781257 -0.922210 1.967746 0.020573 -15.476020 3.577790 1.366134 7.362533 6.689420 6.544717 6.537409 -7.141899 77.439653 -6.025084 19.502676 73.318481 -11.505688 53.476662 -29.407820 52.864981 2.986915 -3.139031 -1.893505 -21.012495 -76.901605 28.168564 -80.576671 -44.803179 34.702504 -68.942229 53.391913 29.989404 13.497106 -0.925090 -13.064227 -5.066395 0.576684 -1.927931 -1.337908 0.314975 5.853390 -0.130326 -0.031161 -0.028754 -0.002512 0.112920 -12.272325 -3.829335 -0.332361 -0.906766 -0.041307 -1.378233 3.909978 -1.437213 -0.022190 -0.036670 0.003946 
12.188062 6.631151 83.066010 -8.630627 -2.275183 -105.476357 2.240469 -2.879956 5.901358 1.030936 -1.248373 2.617939 1.030937 -1.248373 2.617940 0.778537 -0.931888 1.965491 0.023755 -15.449972 3.531840 1.356525 7.412763 6.605876 6.555765 6.560080 -7.144686 77.447870 -6.037535 19.509114 73.316664 -11.497891 53.498536 -29.217046 52.865237 3.165334 -3.133329 -1.858661 -21.009467 -76.876375 28.141049 -80.553141 -44.825101 34.671860 -68.979624 53.427512 29.994048 13.525840 -0.921049 -13.051859 -5.114627 0.577293 -1.924104 -1.324849 0.307890 5.850440 -0.136056 -0.031756 -0.031420 -0.002064 0.110105 -12.242868 -3.835271 -0.324004 -0.923023 -0.074222 -1.381839 3.901880 -1.419848 -0.027535 -0.037167 0.003566 
12.161144 6.621647 83.065575 -8.631131 -2.256328 -105.443682 2.233178 -2.914206 5.931011 1.028266 -1.263704 2.631036 1.028266 -1.263704 2.631035 0.776628 -0.943375 1.975328 0.031466 -15.413495 3.457656 1.345434 7.483323 6.471685 6.551259 6.592610 -7.231002 77.451354 -6.065821 19.521502 73.305955 -11.493216 53.537297 -29.059931 52.928341 3.303224 -3.131231 -1.813400 -21.090781 -76.859852 28.115758 -80.535587 -44.854225 34.640677 -69.014629 53.389929 30.003662 13.524264 -0.921686 -13.036699 -5.169497 0.582259 -1.921645 -1.320447 0.302150 5.846434 -0.127867 -0.033316 -0.032466 -0.003325 0.104585 -12.211624 -3.838025 -0.310942 -0.936466 -0.100692 -1.389817 3.889997 -1.422886 -0.031512 -0.036693 0.003562 
12.133874 6.612869 83.065346 -8.625772 -2.236191 -105.408991 2.224791 -2.945187 5.936910 1.024796 -1.277601 2.633418 1.024796 -1.277601 2.633416 0.774088 -0.953809 1.977129 0.029920 -15.373883 3.406312 1.325621 7.559160 6.376785 6.550997 6.614998 -7.261002 77.460014 -6.106914 19.529075 73.319144 -11.474883 53.585167 -28.963065 52.975961 3.405531 -3.133542 -1.775699 -21.115981 -76.849505 28.093321 -80.525751 -44.880067 34.600523 -69.026076 53.285823 30.026833 13.508874 -0.925415 -13.017226 -5.225649 0.594248 -1.915189 -1.315957 0.294014 5.838500 -0.119589 -0.035326 -0.032151 -0.004958 0.099925 -12.176516 -3.844147 -0.299788 -0.943195 -0.140463 -1.395137 3.874046 -1.414579 -0.034393 -0.036206 0.004355 
